<svg width="1600" height="1000" viewBox="0 0 1600 1000" xmlns="http://www.w3.org/2000/svg">
  <defs>
    <linearGradient id="bg" x1="0" y1="0" x2="0" y2="1">
      <stop offset="0%" stop-color="#edf1f8"/>
      <stop offset="100%" stop-color="#d6dde8"/>
    </linearGradient>
    <filter id="blur60" x="-30%" y="-30%" width="160%" height="160%">
      <feGaussianBlur stdDeviation="60"/>
    </filter>
    <filter id="glassBlur" x="-20%" y="-20%" width="140%" height="140%">
      <feGaussianBlur stdDeviation="8"/>
    </filter>
  </defs>

  <rect width="1600" height="1000" fill="url(#bg)"/>

  <g filter="url(#blur60)">
    <circle cx="270" cy="180" r="250" fill="#7ea2ff" fill-opacity="0.4"/>
    <circle cx="1320" cy="180" r="280" fill="#ffabc9" fill-opacity="0.35"/>
    <circle cx="1180" cy="810" r="260" fill="#8be6d5" fill-opacity="0.32"/>
    <circle cx="350" cy="820" r="260" fill="#ffd9a1" fill-opacity="0.28"/>
  </g>

  <g>
    <rect x="200" y="120" width="1200" height="760" rx="42" fill="rgba(255,255,255,0.22)" stroke="rgba(255,255,255,0.65)"/>
    <rect x="250" y="170" width="1100" height="80" rx="24" fill="rgba(255,255,255,0.30)" stroke="rgba(255,255,255,0.6)"/>

    <rect x="250" y="290" width="270" height="90" rx="22" fill="rgba(255,255,255,0.26)" stroke="rgba(255,255,255,0.56)"/>
    <rect x="250" y="400" width="270" height="90" rx="22" fill="rgba(255,255,255,0.26)" stroke="rgba(255,255,255,0.56)"/>
    <rect x="250" y="510" width="270" height="90" rx="22" fill="rgba(255,255,255,0.26)" stroke="rgba(255,255,255,0.56)"/>
    <rect x="250" y="620" width="270" height="330" rx="22" fill="rgba(255,255,255,0.24)" stroke="rgba(255,255,255,0.56)"/>

    <rect x="550" y="290" width="380" height="210" rx="28" fill="rgba(255,255,255,0.30)" stroke="rgba(255,255,255,0.62)"/>
    <rect x="950" y="290" width="400" height="210" rx="28" fill="rgba(255,255,255,0.30)" stroke="rgba(255,255,255,0.62)"/>
    <rect x="550" y="530" width="800" height="330" rx="28" fill="rgba(255,255,255,0.27)" stroke="rgba(255,255,255,0.62)"/>
  </g>

  <g>
    <rect x="1080" y="600" width="370" height="300" rx="34" fill="rgba(247,250,255,0.78)" stroke="rgba(255,255,255,0.9)"/>
    <rect x="1110" y="650" width="310" height="50" rx="18" fill="rgba(255,255,255,0.82)" stroke="rgba(255,255,255,0.9)"/>
    <rect x="1110" y="725" width="310" height="30" rx="14" fill="rgba(255,255,255,0.75)" stroke="rgba(255,255,255,0.88)"/>
    <rect x="1110" y="770" width="310" height="30" rx="14" fill="rgba(255,255,255,0.75)" stroke="rgba(255,255,255,0.88)"/>
    <rect x="1110" y="815" width="310" height="30" rx="14" fill="rgba(255,255,255,0.75)" stroke="rgba(255,255,255,0.88)"/>
  </g>

  <text x="280" y="218" fill="#3f4f6b" font-size="42" font-family="-apple-system, BlinkMacSystemFont, 'Segoe UI', sans-serif" font-weight="600">
    Consign — Glass + Apple Style Concept
  </text>
  <text x="1120" y="634" fill="#435472" font-size="24" font-family="-apple-system, BlinkMacSystemFont, 'Segoe UI', sans-serif" font-weight="500">
    Tablet Preview
  </text>
  <text x="1120" y="865" fill="#5a6c87" font-size="20" font-family="-apple-system, BlinkMacSystemFont, 'Segoe UI', sans-serif">
    Foco em responsividade
  </text>
</svg>
